<svg width="603" height="129" viewBox="0 0 603 129" fill="none" xmlns="http://www.w3.org/2000/svg">
<path d="M33.2016 0H603L569.798 129H0L33.2016 0Z" fill="white" fill-opacity="0.9"/>
<path d="M33 0L49 0L16 129H0L33 0Z" fill="#2686AF"/>
<path d="M49 0L65 0L32 129H16L49 0Z" fill="#00B2FF"/>
<path d="M587 0L603 0L570 129H554L587 0Z" fill="#2686AF"/>
<path d="M571 0L587 0L554 129H538L571 0Z" fill="#00B2FF"/>
<path d="M555 0L571 0L538 129H522L555 0Z" fill="#CBEFFF"/>
<path d="M65 0L81 0L48 129H32L65 0Z" fill="#CBEFFF"/>
</svg>
