<svg width="71" height="70" viewBox="0 0 71 70" fill="none" xmlns="http://www.w3.org/2000/svg">
<path d="M2.38745 68.7528C10.4249 61.2723 18.4624 53.7918 26.5772 46.2393C29.0512 47.8901 31.4908 49.4009 33.7919 51.0995C35.0494 52.0279 35.9609 51.9572 37.1869 51.062C39.4576 49.4041 41.857 47.9219 44.3829 46.2474C52.4483 53.7565 60.5062 61.2589 68.5642 68.7616C68.5048 68.9033 68.4458 69.0451 68.3864 69.1868C46.4398 69.1868 24.4928 69.1868 2.54614 69.1868C2.49348 69.0419 2.44046 68.8973 2.38745 68.7528Z" fill="#164381"/>
<path d="M0 28.0669C3.52642 31.5467 8.02192 33.7845 12.0859 36.6154C16.0304 39.3632 20.0841 41.9549 24.2463 44.719C16.176 52.2189 8.28027 59.5562 0 67.2509C0 53.8163 0 40.9176 0 28.0669Z" fill="#164381"/>
<path d="M70.9349 67.2391C62.6578 59.5427 54.7663 52.2046 46.7207 44.7235C50.069 42.4909 53.2342 40.3722 56.4076 38.2668C60.4726 35.5699 64.5627 32.9101 68.5998 30.1721C69.4827 29.5734 70.1878 28.7129 70.9349 28.0103C70.9349 40.8776 70.9349 53.7989 70.9349 67.2391Z" fill="#164381"/>
<path d="M10.9202 32.5941C8.33955 30.8846 5.94796 29.4826 3.78468 27.789C2.72301 26.9577 1.45883 25.6024 1.42808 24.4534C1.39557 23.2468 2.71206 21.9933 3.47792 20.7846C3.62282 20.5559 3.92888 20.3905 4.19536 20.2841C7.9416 18.7927 9.01352 15.9851 8.44911 12.1686C8.19536 10.4531 8.406 8.669 8.406 6.65733C10.0784 6.65733 11.5338 6.65733 12.9895 6.65733C14.2261 6.65733 15.4853 6.50536 16.6962 6.68313C22.4845 7.53311 27.291 5.61263 31.7843 2.03779C35.3231 -0.777547 35.4885 -0.565504 39.2482 1.99537C40.7071 2.98919 42.2137 3.91763 43.6292 4.96976C45.3468 6.24666 47.1673 6.80117 49.3528 6.70575C53.056 6.54353 56.7729 6.71883 60.4813 6.6333C62.0162 6.59796 62.7064 6.92593 62.5887 8.66546C62.4223 11.1277 62.4619 13.6144 62.6029 16.0802C62.6446 16.8072 63.1779 17.6621 63.7441 18.1721C65.2115 19.4946 67.0849 20.4414 68.3127 21.9357C70.0703 24.0746 69.7038 25.9364 67.4419 27.6268C65.1479 29.3412 62.6905 30.8376 59.9338 32.6764C59.9338 31.7134 59.9338 31.1065 59.9338 30.4997C59.9338 24.0215 59.8932 17.5427 59.9646 11.0652C59.9805 9.6091 59.5691 9.16131 58.0894 9.16626C43.0128 9.21715 27.9356 9.21963 12.8591 9.16979C11.3482 9.16485 10.986 9.67235 10.9987 11.0963C11.057 17.6918 11.0164 24.288 11.0061 30.8842C11.0047 31.3384 10.9612 31.7936 10.9202 32.5941Z" fill="#164381"/>
<path d="M37.2134 32.9147C35.4954 33.4007 34.1242 34.0856 32.7381 34.1167C30.1199 34.1761 28.3193 32.2849 27.8867 29.4151C27.5036 26.8737 28.0662 24.5001 29.3615 22.3029C30.9512 19.6063 34.5405 17.6523 38.2613 20.3008C39.1512 19.9654 39.8849 19.5272 40.6607 19.4318C42.0181 19.2646 42.6331 19.9414 42.3044 21.3487C41.7708 23.6336 41.1586 25.9071 40.7897 28.2188C40.667 28.9879 41.189 29.8597 41.4163 30.685C42.2535 30.398 43.3438 30.3531 43.8867 29.7848C47.3431 26.1672 46.7458 20.6652 42.6967 17.7544C38.3801 14.6514 31.6248 15.3134 27.9588 19.1985C24.2238 23.1568 23.8665 29.8262 27.2622 33.9686C30.0171 37.3293 33.8188 37.8774 37.8383 37.5286C40.7681 37.2741 43.4085 36.2118 45.7842 34.4277C46.2673 34.0647 47.1102 34.181 47.787 34.0764C47.6071 34.7825 47.6601 35.7449 47.2102 36.1541C43.3191 39.6933 38.6497 40.6451 33.582 39.8223C26.2192 38.627 22.1659 33.6286 22.4974 26.3005C22.8642 18.1976 30.3182 12.2075 38.32 13.5099C42.9897 14.2701 46.7048 16.1672 48.2288 21.0377C49.7241 25.8166 47.2403 31.5456 42.7833 33.5162C40.3793 34.5793 38.9611 34.3825 37.2134 32.9147ZM30.9699 27.4731C31.1699 29.5113 32.0005 31.0897 33.3092 31.4933C34.6773 31.9152 36.5133 31.0306 37.1986 29.1883C37.7715 27.6477 38.1906 25.8785 38.0037 24.2895C37.887 23.2985 36.661 22.0029 35.6661 21.689C34.8766 21.4402 33.2986 22.21 32.755 22.9992C31.8669 24.2888 31.5361 25.9619 30.9699 27.4731Z" fill="#00B2FF"/>
<path d="M30.9697 27.4729C31.5359 25.9617 31.8667 24.2886 32.7548 22.9993C33.2984 22.2101 34.8764 21.4404 35.666 21.6892C36.6608 22.003 37.8868 23.2987 38.0035 24.2897C38.1904 25.8783 37.7713 27.6479 37.1984 29.1884C36.5131 31.0308 34.6771 31.9154 33.309 31.4934C32.0003 31.0895 31.1698 29.5111 30.9697 27.4729Z" fill="white"/>
</svg>
