<svg width="88" height="101" viewBox="0 0 88 101" fill="none" xmlns="http://www.w3.org/2000/svg">
<path d="M61.0757 76.835C56.4254 82.5187 50.5822 84.5351 44.2195 85.3741C39.6446 85.9776 34.9 85.9144 31.4521 90.2356C30.1587 89.0118 29.0692 88.0411 28.0474 87.0045C22.9988 81.8817 18.0012 76.7079 12.9087 71.6296C11.5468 70.2716 11.2396 69.2924 13.0133 68.0797C13.9743 67.4226 14.7456 66.4841 15.5899 65.6586C17.7727 63.5235 18.5576 61.371 17.1292 58.207C15.0645 53.6348 15.2781 49.1819 18.0373 44.4625C20.41 40.4033 21.3601 35.5057 22.8839 30.9606C23.6765 28.5963 23.4196 25.0387 26.4577 24.7489C29.4803 24.4604 30.4614 27.8147 31.0022 30.1912C31.5973 32.8078 31.6109 35.6839 31.2359 38.3573C30.8848 40.8596 29.6604 43.2342 28.8833 45.6843C28.0648 48.2634 28.0849 50.6948 29.9747 52.9416C34.7361 58.602 35.6978 65.2636 34.6993 72.3215C34.121 76.4097 34.1449 76.6065 38.1834 76.6304C44.6274 76.6685 51.0721 76.6459 57.5161 76.6659C58.5275 76.6698 59.5396 76.7595 61.0757 76.835Z" fill="#164381"/>
<path d="M72.715 25.9834C74.8688 25.4838 76.6134 25.0598 78.3671 24.677C80.4693 24.2188 82.3649 24.5583 83.113 26.8154C83.8623 29.077 82.8404 31.5435 80.5001 32.5C77.1638 33.8632 76.5001 33.5 72.4839 33.5C71.4839 31.5 70.2326 31.3909 70.2333 29.392C70.2346 23.3739 70.1707 17.3546 70.2733 11.3378C70.3101 9.19624 69.755 8.28296 67.4005 8.30426C55.9027 8.40817 44.4029 8.38493 32.9044 8.32813C30.8694 8.3178 30.0013 8.92193 30.0852 11.099C30.2323 14.9419 30.1265 18.7945 30.1265 22.6433C29.827 22.7394 29.5275 22.8363 29.228 22.9324C28.8201 22.0514 28.0779 21.1768 28.0592 20.2874C27.9456 14.9167 27.932 9.54091 28.0198 4.16958C28.0675 1.24382 29.8877 0.0142578 32.6734 0.0129669C44.2803 0.00909429 55.8872 -0.0173669 67.4934 0.0187776C71.1601 0.0303954 72.4342 1.34256 72.4775 5.17839C72.542 10.8737 72.4691 16.5697 72.4839 22.2657C72.4859 23.4017 72.6201 24.5357 72.715 25.9834ZM54.3084 5.18678C54.3013 4.64978 54.2942 4.11278 54.2871 3.57577C51.8732 3.57577 49.4586 3.55577 47.0505 3.67065C46.9763 3.67388 46.9692 5.08158 46.9311 5.8348C49.436 5.94646 52.0494 6.84943 54.3084 5.18678Z" fill="#00B2FF"/>
<path d="M0 77.2342C2.93932 74.4821 5.17189 72.3909 7.60454 70.1138C15.4531 78.2624 23.0886 86.189 30.87 94.268C28.4941 96.5399 26.3041 98.6337 24.7241 100.145C16.6019 92.6182 8.51848 85.1279 0 77.2342Z" fill="#00B2FF"/>
<path d="M72.3787 70.0883C71.9941 72.9282 70.2998 73.9738 67.8755 73.9809C57.7809 74.0112 47.6863 73.9938 37.2734 73.9938C37.5135 71.6806 37.7369 69.5222 37.9963 67.0186C42.9559 67.0186 47.7637 67.0179 52.5716 67.0186C55.0449 67.0192 57.5189 66.9869 59.9909 67.0334C63.5053 67.0992 67.2624 66.1124 70.039 69.4654C70.4192 69.9243 71.4332 69.8572 72.3787 70.0883ZM46.2385 69.9527C48.4111 72.5383 52.7484 72.3434 54.5427 69.9527C51.5866 69.9527 48.9126 69.9527 46.2385 69.9527Z" fill="#00B2FF"/>
<rect x="69" y="27.0239" width="14.2718" height="8.51936" rx="4.25968" transform="rotate(-16.3766 69 27.0239)" fill="#164381"/>
<rect x="69" y="38.416" width="15.6632" height="8.51936" rx="4.25968" transform="rotate(-16.3766 69 38.416)" fill="#164381"/>
<rect x="70" y="49.416" width="15.6632" height="8.51936" rx="4.25968" transform="rotate(-16.3766 70 49.416)" fill="#164381"/>
<rect x="71" y="60.5078" width="12.4413" height="6.76695" rx="3.38348" transform="rotate(-16.3766 71 60.5078)" fill="#164381"/>
</svg>
