<?xml version="1.0" encoding="utf-8"?>
<!-- Generator: Adobe Illustrator 19.2.0, SVG Export Plug-In . SVG Version: 6.00 Build 0)  -->
<svg version="1.1" id="Слой_1" xmlns="http://www.w3.org/2000/svg" xmlns:xlink="http://www.w3.org/1999/xlink" x="0px" y="0px"
	 viewBox="0 0 35 35" style="enable-background:new 0 0 35 35;" xml:space="preserve">
<style type="text/css">
	.st0{fill:#00B2FF;}
	.st1{fill:#FFFFFF;}
</style>
<g>
	<circle class="st0" cx="17.5" cy="17.5" r="17.5"/>
	<path class="st1" d="M7,15.2c1.3,0.1,2.4,0.2,3.5,0.4c2.1,0.5,4.3,1.2,6.4,1.8c0.2,0.1,0.4,0.3,0.4,0.5c0,3.1,0,6.2,0,9.4
		c0,0.1,0,0.1-0.1,0.3c-1.2-0.5-2.3-0.9-3.5-1.4c-1.3-0.6-2.5-1.2-3.9-1c-0.1,0-0.3-0.2-0.4-0.4c-0.6-2.1-1.1-4.3-1.7-6.5
		C7.6,17.4,7.3,16.5,7,15.2z"/>
	<path class="st1" d="M28.5,15.3c-0.3,1.3-0.6,2.3-0.9,3.4c-0.5,2-1.1,4-1.6,6c-0.1,0.4-0.2,0.6-0.7,0.5c-1-0.1-1.9,0.2-2.8,0.6
		c-1.4,0.6-2.8,1.2-4.3,1.8c0-0.3,0-0.5,0-0.7c0-2.9,0-5.9,0-8.8c0-0.5,0.2-0.7,0.6-0.8c2.3-0.6,4.6-1.3,6.9-1.9
		C26.5,15.3,27.4,15.4,28.5,15.3z"/>
	<path class="st1" d="M7.2,11.6c3.4,0.8,6.3,2.7,9,4.7c-0.9-0.4-1.8-0.8-2.6-1.2c-1.8-0.9-3.7-1.2-5.6-1.3c-0.4,0-0.6-0.1-0.6-0.6
		C7.4,12.8,7.3,12.3,7.2,11.6z"/>
	<path class="st1" d="M19.3,16.4c2.7-2.1,5.5-3.9,8.9-4.7c-0.1,0.7-0.1,1.3-0.2,1.9c0,0.1-0.3,0.2-0.5,0.3C26.4,14,25.2,14,24,14.4
		c-1.5,0.5-2.9,1.2-4.3,1.8C19.6,16.2,19.4,16.3,19.3,16.4z"/>
	<path class="st1" d="M25.7,8.5c0.3,1.1,0.2,1.3-0.7,1.8c-2.1,1.3-3.9,2.9-5.5,4.6c-0.1,0.1-0.2,0.2-0.3,0.3c0,0-0.1,0-0.2,0.1
		C20.7,12.5,22.7,10.1,25.7,8.5z"/>
	<path class="st1" d="M16.4,15.1c-0.4-0.3-0.9-0.8-1.4-1.2c-1.5-1.5-3.1-2.8-4.9-3.8c-0.7-0.4-0.2-1-0.4-1.6
		C11.4,8.9,15.7,13.2,16.4,15.1z"/>
	<path class="st1" d="M8.5,10.2c3.4,1.2,5.9,3.6,8.3,6c-0.8-0.6-1.7-1.2-2.5-1.8c-1.6-1.2-3.3-2.1-5.2-2.8
		C8.3,11.3,8.3,11.3,8.5,10.2z"/>
	<path class="st1" d="M27,10.2c0.2,1,0.2,1-0.6,1.3c-2.7,0.9-4.9,2.6-7.2,4.3c-0.2,0.1-0.4,0.2-0.6,0.3C21.2,13.8,23.6,11.4,27,10.2
		z"/>
</g>
</svg>
