<?xml version="1.0" encoding="utf-8"?>
<!-- Generator: Adobe Illustrator 19.2.0, SVG Export Plug-In . SVG Version: 6.00 Build 0)  -->
<svg version="1.1" id="Слой_1" xmlns="http://www.w3.org/2000/svg" xmlns:xlink="http://www.w3.org/1999/xlink" x="0px" y="0px"
	 width="50px" height="50px" viewBox="0 0 50 50" style="enable-background:new 0 0 50 50;" xml:space="preserve">
<style type="text/css">
	.st0{fill:#17CDC1;}
	.st1{fill:#FFFFFF;}
</style>
<circle class="st0" cx="25" cy="25" r="25"/>
<path class="st1" d="M16.9,27.5c-0.1,0.5-0.1,1-0.3,1.4c-0.1,0.3-0.4,0.6-0.7,0.7c-0.8,0.4-1.4,1.1-1.8,1.9
	c-0.1,0.3-0.1,0.6-0.2,0.9c-0.4,1.2-0.7,2.3-0.7,3.6c0,0.4,0.1,0.8,0.2,1.1c0.1,0.2,0.3,0.4,0.5,0.5c0.5,0.1,1,0.2,1.5,0.2
	c0.3,0,0.5-0.1,0.5-0.4c0-0.3-0.2-0.4-0.5-0.4s-0.6,0.1-0.8,0.1c-0.3,0.1-0.6,0-0.7-0.3s-0.2-0.6-0.1-0.9c0.2-1.1,0.4-2.2,0.7-3.3
	c0.2-0.7,0.8-1.2,1.3-1.7c0.6-0.6,1.5-0.6,2.2,0c0.2,0.2,0.4,0.4,0.6,0.7c0.8,1,1.1,2.2,1.3,3.4c0.1,0.5,0.1,0.9,0.1,1.4
	c0,0.7-0.3,0.8-1,0.7c-0.3-0.1-0.6-0.1-0.8,0c-0.1,0-0.3,0.2-0.3,0.4c0,0.1,0.2,0.3,0.3,0.4c0.6,0.1,1.3,0,1.8-0.3
	c0.3-0.1,0.5-0.6,0.5-0.9c0-0.8-0.1-1.6-0.2-2.4c-0.1-0.8-0.3-1.6-0.5-2.4c-0.3-0.9-0.9-1.6-1.7-2.1c-0.3-0.2-0.6-0.5-0.8-0.7
	c0,0-0.1-0.2,0-0.2c0-0.2,0.1-0.4,0.1-0.6c0.1-0.7,0.5-1.2,1.2-1.4c0.6-0.2,1.1-0.5,1.7-0.7c0.2-0.1,0.4-0.1,0.4,0.2
	c-0.1,2.1,0.8,3.9,1.3,5.8c0.4,1.3,0.8,2.6,1.1,3.9c0,0.1,0.1,0.3,0.2,0.4c0.1-0.4,0.1-0.9,0.2-1.3c0.3-1.1,0.6-2.2,0.8-3.3
	c0-0.1,0-0.2,0.1-0.2c0.5-0.6,0.2-1.1-0.2-1.6s-0.4-0.5,0-0.9c0.1-0.2,0.3-0.4,0.4-0.5c0.2-0.2,0.2-0.3,0-0.5
	c-1-0.7-1.9-1.5-2.9-2.2c-0.3-0.3-0.4-0.5-0.3-0.9c0.1-0.3,0.1-0.6,0.2-0.9c0-0.1,0-0.3-0.1-0.4c-0.3-0.9-0.6-1.8-0.9-2.7
	c0-0.1-0.1-0.2-0.1-0.2c-0.7-0.4-0.9-1.1-1-1.7c-0.1-0.5-0.2-1.1,0-1.5c0.3-0.7,0.1-1.4,0.1-2.1c-0.1-1.1-0.2-2.1,0.2-3.2
	c0.2-0.5,0.5-1,1-1.2c0.1-0.1,0.2-0.2,0.2-0.3c0.7-1.5,2-2.3,3.6-2.3c2.5,0,4.6,1,6.1,3.1c0.4,0.6,0.7,1.3,0.6,2.1
	c0,1-0.1,2.1-0.2,3.1c0,0.2,0.1,0.4,0.1,0.5c0.1,0.3,0.2,0.5,0.2,0.8c0,0.7-0.2,1.5-0.5,2.1c-0.1,0.1-0.1,0.3-0.2,0.3
	c-0.6,0.3-0.6,1-0.8,1.5c-0.2,0.5-0.3,1-0.6,1.5c-0.1,0.3-0.2,0.5-0.1,0.8c0.3,1.2,0.3,1.2-0.7,2c-0.8,0.6-1.6,1.2-2.3,1.8
	c-0.2,0.1-0.3,0.3,0,0.4c0.1,0.1,0.2,0.2,0.2,0.2c0.6,0.7,0.6,0.7,0.1,1.4c-0.1,0.2-0.2,0.4-0.3,0.6c0,0.1,0,0.3,0,0.4
	c0.6,1,0.8,2.1,1,3.2c0.1,0.7,0.2,1.4,0.4,2.1c0.1-0.3,0.2-0.6,0.3-0.9c0.7-2.3,1.4-4.5,2-6.8c0.2-0.7,0.2-1.4,0.3-2
	c0-0.2,0-0.4,0.1-0.7c0.3,0.1,0.5,0.2,0.7,0.3c0.4,0.2,0.9,0.4,1.3,0.6c0.1,0.1,0.3,0.2,0.4,0.3c0.5,0.7,0.9,1.5,0.9,2.4
	c0,0.7,0,0.8-0.7,1c-0.6,0.2-0.9,0.6-1,1.2c-0.1,0.6,0.1,1.1,0.5,1.5c0.6,0.5,1.5,0.5,2.1,0s0.7-1.4,0.3-2.1
	c-0.1-0.2-0.2-0.3-0.3-0.5C34,30.4,34,30,34,29.7c-0.1-0.6-0.3-1.3-0.4-1.9c0-0.1-0.1-0.2-0.2-0.4c0.3,0.1,0.5,0.2,0.7,0.2
	c0.6,0.3,1.3,0.5,1.9,0.8c1.8,0.8,2.8,2.2,3.2,4.2c0.2,1.2,0.5,2.4,0.8,3.6c0.2,1,0,1.5-0.8,2c-1,0.6-2.2,0.9-3.3,1.2
	c-4,0.9-8,1-12.1,0.9c-2.5,0-4.9-0.2-7.4-0.6c-1.4-0.2-2.8-0.5-4.1-1.2c-0.3-0.1-0.5-0.3-0.7-0.4c-0.6-0.4-0.9-1-0.7-1.8
	c0.3-1.4,0.6-2.9,1-4.3c0.4-1.7,1.5-2.9,3.1-3.6c0.6-0.3,1.2-0.5,1.8-0.8C16.7,27.6,16.7,27.6,16.9,27.5z"/>
<path class="st1" d="M33.3,33c-0.5,0-1-0.4-1-1s0.4-1,1-1s1,0.4,1,0.9C34.2,32.5,33.8,33,33.3,33z"/>
</svg>
