<?xml version="1.0" encoding="utf-8"?>
<!-- Generator: Adobe Illustrator 19.2.0, SVG Export Plug-In . SVG Version: 6.00 Build 0)  -->
<svg version="1.1" id="Слой_1" xmlns="http://www.w3.org/2000/svg" xmlns:xlink="http://www.w3.org/1999/xlink" x="0px" y="0px"
	 width="50px" height="50px" viewBox="0 0 50 50" style="enable-background:new 0 0 50 50;" xml:space="preserve">
<style type="text/css">
	.st0{fill:#164381;}
	.st1{fill:#FFFFFF;}
</style>
<circle class="st0" cx="25" cy="25" r="25"/>
<path class="st1" d="M10,37.1c0-1.6,0-3.2,0-4.8c0-1.2,0-2.4,0-3.5c0-0.1,0-0.2,0-0.3c0.4,0,0.8,0,1.2,0c0-1.1,0-2.2,0-3.3
	c0.1,0,0.3,0,0.4,0c0,0.2,0,0.5,0,0.7c0.2,0,0.3,0,0.4,0c0-0.4,0-0.8,0-1.3c0.2,0,0.4,0,0.6,0c0,0,0.1,0.1,0.1,0.2
	c0,0.3,0,0.6,0,0.9c0,0.1,0,0.1,0,0.2c0.2,0.1,0.3,0,0.3-0.2c0-0.1,0-0.1,0-0.2c0-0.3,0.1-0.4,0.4-0.3l0.1,0.1c0,0.9,0,1.8,0,2.8
	c0,0.1,0,0.2,0,0.3c0.4,0,0.8,0,1.2,0c0,0.3,0,0.6,0,1c1.4,0,2.9,0,4.4,0c0-0.3,0-0.5,0-0.8c0-0.2,0-0.2,0.2-0.2
	c0.5,0,0.5,0,0.5,0.5c0,0.2,0,0.3,0,0.5c0.3,0,0.5,0,0.8,0c0-0.1,0-0.2,0-0.3c0-1.7,0-3.4,0-5.1c0-0.2,0.1-0.3,0.3-0.3
	c0.2,0,0.3,0,0.3-0.2c0.1-0.3,0.2-0.6,0.3-0.9c0-0.1,0-0.3,0-0.4c0-0.1,0-0.2,0.1-0.3c0.2,0.2,0.4,0.4,0.2,0.6c0,0,0,0.1,0,0.2
	c0.2,0.3,0.3,0.6,0.5,0.9c0,0.1,0.1,0.1,0.2,0.2c0-0.1,0.1-0.1,0.1-0.2c0-1.6,0-3.2,0-4.7c0-0.1,0-0.1,0-0.2c0.2,0,0.4,0,0.6,0
	c0-0.3,0-0.5,0-0.7c0-0.4,0-0.4,0.4-0.4c0-0.8,0-1.6,0-2.4c0.1,0,0.2,0,0.3,0c0-0.4,0-0.9,0-1.3c0.1,0,0.1,0,0.1,0
	c0.3,0,0.4-0.1,0.5-0.4c0-0.4,0-0.4-0.2-0.8c0.1,0,0.2-0.1,0.3-0.1c0-0.2-0.1-0.4-0.1-0.6v-0.1c0.3-0.1,0.2-0.4,0.2-0.6
	c0.1-0.7,0-1.4,0.1-2.2c0-0.3,0-0.5-0.3-0.6c-0.2-0.1-0.3-0.3-0.3-0.6c0.1,0.1,0.1,0.2,0.1,0.3c0,0.1,0.1,0.1,0.1,0.2
	c0.3-0.2,0.2-0.4-0.1-0.6c0.3,0,0.5,0,0.6-0.3c0,0.1,0.1,0.2,0.1,0.3c0.1,0,0.2,0,0.4,0c-0.2,0.1-0.3,0.3-0.2,0.5s0.1,0.2,0.2,0.1
	c0.1-0.1,0.1-0.1,0.2-0.2c0,0.3-0.2,0.5-0.5,0.6c-0.2,0-0.2,0.1-0.2,0.2C25,9.9,25,10.7,25,11.6c0,0.2,0,0.4,0.2,0.5
	c0,0,0,0.2,0,0.3c0,0.1-0.1,0.3-0.1,0.4c0.1,0.1,0.2,0.1,0.3,0.1l0,0c-0.1,0.1-0.2,0.2-0.2,0.4c0,0.2,0.1,0.5,0.1,0.7
	c0,0.1,0.2,0.1,0.2,0.1c0.2,0,0.3,0,0.3,0.3s0,0.6,0,0.9c0,0.2,0.1,0.2,0.2,0.2c0.2,0,0.2,0.1,0.2,0.2c0,0.4,0,0.8,0,1.2
	c0,0.3,0,0.6,0,1c0.3,0.1,0.3,0.1,0.3,0.4c0,0.2,0,0.5,0,0.7c0.2,0,0.3,0,0.4,0c0.1,0.3,0.1,4.4,0.1,5.2c0.4,0.1,0.5,0.1,0.7-0.3
	c0.1-0.3,0.3-0.5,0.4-0.8c0-0.1,0-0.1,0-0.2c0-0.1,0-0.2,0-0.3s0.1-0.1,0.2-0.2c0,0.1,0.1,0.2,0.1,0.3c-0.1,0.5,0.2,0.9,0.3,1.4
	c0,0.1,0.1,0.2,0.2,0.1c0.1,0,0.2,0,0.4,0c0,1.9,0,3.7,0,5.6c0.3,0,0.5,0,0.8,0c0-0.3,0-0.5,0-0.8c0-0.2,0.1-0.2,0.2-0.2
	c0.5,0,0.5,0,0.5,0.5c0,0.2,0,0.3,0,0.5c1.5,0,2.9,0,4.3,0c0-0.3,0-0.6,0-0.9c0.4,0,0.8,0,1.2,0c0-0.1,0-0.3,0-0.4
	c0-0.8,0-1.7,0-2.5c0-0.1,0-0.2,0-0.3c0,0,0-0.1,0.1-0.1c0,0,0,0,0.1,0c0.3,0,0.4,0,0.3,0.4v0.1c0,0.3,0,0.3,0.3,0.2
	c0-0.3,0-0.7,0-1c0-0.1,0-0.2,0.2-0.2s0.4,0,0.6,0c0,0.4,0,0.9,0,1.3c0.2,0,0.3,0,0.4,0c0-0.2,0-0.4,0-0.7c0.2,0,0.3,0,0.4,0
	c0,1.1,0,2.1,0,3.2c0.4,0,0.8,0,1.2,0c0,0.1,0,0.2,0,0.2c0,1,0,2.1,0,3.1c0,1.7,0,3.4,0,5.1c0,0.1,0,0.2,0,0.3
	C30,37.1,20,37.1,10,37.1z M25.2,8.1c-0.2-0.4-0.3-0.3-0.5,0C24.8,8.1,25,8.1,25.2,8.1z"/>
</svg>
