<?xml version="1.0" encoding="utf-8"?>
<!-- Generator: Adobe Illustrator 19.2.0, SVG Export Plug-In . SVG Version: 6.00 Build 0)  -->
<svg version="1.1" id="Слой_1" xmlns="http://www.w3.org/2000/svg" xmlns:xlink="http://www.w3.org/1999/xlink" x="0px" y="0px"
	 width="50px" height="50px" viewBox="0 0 50 50" style="enable-background:new 0 0 50 50;" xml:space="preserve">
<style type="text/css">
	.st0{fill:#00B2FF;}
	.st1{fill:#FFFFFF;}
</style>
<g>
	<circle class="st0" cx="25" cy="25" r="25"/>
	<path class="st1" d="M10,21.7c1.9,0.1,3.4,0.3,5,0.6c3,0.7,6.1,1.7,9.1,2.6c0.3,0.1,0.6,0.4,0.6,0.7c0,4.4,0,8.9,0,13.4
		c0,0.1,0,0.1-0.1,0.4c-1.7-0.7-3.3-1.3-5-2C17.7,36.6,16,35.7,14,36c-0.1,0-0.4-0.3-0.6-0.6c-0.9-3-1.6-6.1-2.4-9.3
		C10.9,24.9,10.4,23.6,10,21.7z"/>
	<path class="st1" d="M40.7,21.9c-0.4,1.9-0.9,3.3-1.3,4.9c-0.7,2.9-1.6,5.7-2.3,8.6c-0.1,0.6-0.3,0.9-1,0.7c-1.4-0.1-2.7,0.3-4,0.9
		c-2,0.9-4,1.7-6.1,2.6c0-0.4,0-0.7,0-1c0-4.1,0-8.4,0-12.6c0-0.7,0.3-1,0.9-1.1c3.3-0.9,6.6-1.9,9.9-2.7
		C37.9,21.9,39.1,22,40.7,21.9z"/>
	<path class="st1" d="M10.3,16.6c4.9,1.1,9,3.9,12.9,6.7c-1.3-0.6-2.6-1.1-3.7-1.7c-2.6-1.3-5.3-1.7-8-1.9c-0.6,0-0.9-0.1-0.9-0.9
		C10.6,18.3,10.4,17.6,10.3,16.6z"/>
	<path class="st1" d="M27.6,23.4c3.9-3,7.9-5.6,12.7-6.7c-0.1,1-0.1,1.9-0.3,2.7c0,0.1-0.4,0.3-0.7,0.4c-1.6,0.1-3.3,0.1-5,0.7
		c-2.1,0.7-4.1,1.7-6.1,2.6C28,23.1,27.7,23.3,27.6,23.4z"/>
	<path class="st1" d="M36.7,12.1c0.4,1.6,0.3,1.9-1,2.6c-3,1.9-5.6,4.1-7.9,6.6c-0.1,0.1-0.3,0.3-0.4,0.4c0,0-0.1,0-0.3,0.1
		C29.6,17.9,32.4,14.4,36.7,12.1z"/>
	<path class="st1" d="M23.4,21.6c-0.6-0.4-1.3-1.1-2-1.7c-2.1-2.1-4.4-4-7-5.4c-1-0.6-0.3-1.4-0.6-2.3
		C16.3,12.7,22.4,18.9,23.4,21.6z"/>
	<path class="st1" d="M12.1,14.6c4.9,1.7,8.4,5.1,11.9,8.6c-1.1-0.9-2.4-1.7-3.6-2.6c-2.3-1.7-4.7-3-7.4-4
		C11.9,16.1,11.9,16.1,12.1,14.6z"/>
	<path class="st1" d="M38.6,14.6c0.3,1.4,0.3,1.4-0.9,1.9c-3.9,1.3-7,3.7-10.3,6.1c-0.3,0.1-0.6,0.3-0.9,0.4
		C30.3,19.7,33.7,16.3,38.6,14.6z"/>
</g>
</svg>
