<?xml version="1.0" encoding="utf-8"?>
<!-- Generator: Adobe Illustrator 19.2.0, SVG Export Plug-In . SVG Version: 6.00 Build 0)  -->
<svg version="1.1" id="Слой_1" xmlns="http://www.w3.org/2000/svg" xmlns:xlink="http://www.w3.org/1999/xlink" x="0px" y="0px"
	 width="14.7px" height="18px" viewBox="0 0 14.7 18" style="enable-background:new 0 0 14.7 18;" xml:space="preserve">
<style type="text/css">
	.st0{fill:#FFFFFF;}
	.st1{fill:none;stroke:#FFFFFF;stroke-width:2;stroke-linecap:round;stroke-linejoin:round;}
</style>
<path class="st0" d="M7.3,9.9c1.2,0,2.2-1,2.2-2.2c0-1.2-1-2.2-2.2-2.2c-1.2,0-2.2,1-2.2,2.2C5.1,8.9,6.1,9.9,7.3,9.9z"/>
<path class="st1" d="M7.3,1.8c-1.6,0-3.1,0.6-4.2,1.7C2.1,4.7,1.5,6.2,1.5,7.7c0,1.4,0.3,2.3,1.1,3.3l4.8,5.5l4.8-5.5
	c0.8-1,1.1-1.9,1.1-3.3c0-1.6-0.6-3.1-1.7-4.2C10.4,2.4,8.9,1.8,7.3,1.8L7.3,1.8z"/>
</svg>
