<svg width="349" height="111" viewBox="0 0 349 111" fill="none" xmlns="http://www.w3.org/2000/svg">
<path d="M100.069 89.9703H23.8696L45.2911 0H121.49L100.069 89.9703Z" fill="#164381"/>
<mask id="mask0_123_14" style="mask-type:alpha" maskUnits="userSpaceOnUse" x="0" y="6" width="106" height="105">
<path d="M0 75.8933C0 73.4451 0 70.9969 0 68.5488C0.183613 68.1816 0.42843 67.8755 0.489634 67.4471C3.18262 48.841 17.4432 35.4373 36.1717 33.9684C44.4343 33.3563 52.0236 35.4985 58.8785 39.2319C64.0197 34.152 68.9772 29.3169 74.3632 23.9309C69.5892 23.9309 65.1825 23.9309 60.837 23.9309C60.837 17.6881 60.837 11.9349 60.837 6.05926C76.0157 6.05926 90.9495 6.05926 105.883 6.05926C105.883 20.9319 105.883 35.8657 105.883 50.7384C99.8241 50.7384 93.7649 50.7384 87.3385 50.7384C87.3385 45.9644 87.3385 41.6801 87.3385 37.3958C87.0937 37.2734 86.8488 37.151 86.6652 37.0286C82.4421 41.3741 78.219 45.7808 73.8735 50.0039C72.4046 51.4116 72.1598 52.3909 73.1391 54.3494C84.2783 76.5666 73.6899 101.783 50.1263 109.311C47.0049 110.29 45.3524 110.719 35.3761 110.719C21.4215 109.678 11.1392 102.701 4.71273 90.5211C2.32576 86.0532 1.53011 80.7896 0 75.8933ZM61.8163 72.8943C61.8775 60.1638 51.5952 49.5755 39.0483 49.5143C26.5014 49.4531 15.9131 59.7354 15.8519 72.1598C15.7907 84.8903 25.8282 95.2338 38.6811 95.5399C50.8607 95.9071 61.7551 85.2575 61.8163 72.8943Z" fill="white"/>
</mask>
<g mask="url(#mask0_123_14)">
<path d="M100.069 89.9703H23.8696L45.2911 2.28882e-05H121.49L100.069 89.9703Z" fill="white"/>
</g>
<path d="M143.402 36.0493C141.81 27.9091 139.974 26.5014 135.996 26.1342L133.915 36.0493H130.977L135.323 15.5459H138.26L136.118 25.4609C138.26 23.9308 142.728 20.1362 147.135 15.5459H150.868C145.544 20.8094 141.933 23.9308 140.586 24.7877C143.034 25.5221 144.932 26.685 146.89 36.0493H143.402Z" fill="#164381"/>
<path d="M166.292 36.0493H163.354L166.782 19.9526C162.681 25.3385 158.152 31.0305 153.745 36.0493H149.767L154.112 15.5459H157.05L153.439 32.377C158.213 26.8074 162.803 21.1155 166.965 15.5459H170.576L166.292 36.0493Z" fill="#164381"/>
<path d="M171.8 36.0493L176.146 15.5459H186.061C190.468 15.5459 191.141 18.6061 190.345 22.4007C189.611 25.767 187.407 28.8884 183.307 28.8884H176.268L174.799 36.0493H171.8ZM183.184 26.3178C185.204 26.3178 186.489 24.8489 187.04 22.3395C187.652 19.5853 186.979 18.0552 185.02 18.0552H178.533L176.819 26.3178H183.184Z" fill="#164381"/>
<path d="M198.547 15.5459L196.833 23.5024H204.239C208.462 23.5024 209.135 26.1954 208.339 29.8677C207.482 33.8459 205.34 36.0493 201.852 36.0493H191.141L195.486 15.5459H198.547ZM201.913 33.5399C203.749 33.5399 204.728 32.1322 205.218 29.8677C205.707 27.5419 205.218 26.073 203.382 26.073H196.343L194.752 33.6011H201.913V33.5399Z" fill="#164381"/>
<path d="M213.236 21.5439C213.909 18.3001 215.806 15.6071 220.274 15.6071H230.189L225.844 36.1105H222.845L224.62 27.7868H221.07C218.56 27.7868 216.602 28.8272 212.746 36.1105H209.257C213.664 28.6436 215.255 27.4195 217.765 26.9911C213.419 26.8687 212.562 24.4205 213.236 21.5439ZM226.578 18.0553H220.152C218.316 18.0553 216.969 19.3406 216.479 21.7275C215.99 23.9309 216.785 25.155 218.744 25.155H225.048L226.578 18.0553Z" fill="#164381"/>
<path d="M234.351 36.0493H231.413L235.759 15.5459H238.697L236.922 23.7472H246.714L248.489 15.5459H251.427L247.082 36.0493H244.144L246.163 26.5014H236.371L234.351 36.0493Z" fill="#164381"/>
<path d="M272.787 25.6446C271.012 34.0908 267.463 36.4165 260.975 36.4165C254.548 36.4165 251.978 34.0908 253.753 25.6446C255.528 17.3208 259.078 15.0562 265.504 15.0562C271.93 15.0562 274.562 17.3208 272.787 25.6446ZM269.605 25.7058C271.074 18.8509 269.85 17.688 264.953 17.688C260.118 17.688 258.404 18.8509 256.935 25.7058C255.528 32.3158 256.691 33.7847 261.526 33.7847C266.422 33.7847 268.197 32.377 269.605 25.7058Z" fill="#164381"/>
<path d="M292.189 30.3573C291.332 34.2744 289.068 36.0493 285.763 36.0493H275.113L279.459 15.5459H289.863C293.964 15.5459 294.331 17.6268 293.719 20.4422C293.168 23.0128 292.311 24.7877 288.578 25.0937C292.495 25.2773 292.801 27.4195 292.189 30.3573ZM285.885 33.4787C287.66 33.4787 288.578 32.1322 289.068 30.0513C289.557 27.8479 289.068 26.379 287.293 26.379H280.132L278.663 33.4787H285.885ZM280.621 23.9308H287.66C289.374 23.9308 290.169 22.5843 290.536 20.9318C290.904 19.0957 290.598 18.0552 288.884 18.0552H281.846L280.621 23.9308Z" fill="#164381"/>
<path d="M134.282 52.7581H129.508C128.957 53.7373 128.468 54.6554 127.978 55.6347H126.448C128.223 52.3909 130.365 48.6574 132.385 45.4136H134.833C135.2 48.7798 135.812 52.8805 136.424 55.6347H134.772C134.588 54.7778 134.405 53.7985 134.282 52.7581ZM133.119 46.6376C132.14 48.229 131.161 49.8815 130.243 51.534H134.099C133.854 49.9427 133.67 48.229 133.486 46.6376H133.119Z" fill="#0D0F0F"/>
<path d="M142.239 46.6376C141.504 49.3918 140.035 52.7581 138.505 55.5735H136.914C138.567 52.5133 140.219 49.0858 141.137 45.3524H147.747L145.544 55.5735H144.075L145.972 46.6376H142.239Z" fill="#0D0F0F"/>
<path d="M157.723 45.3524L157.479 46.6376H151.725L151.113 49.5754H155.153L154.908 50.8607H150.868L150.134 54.3494H155.887L155.642 55.6347H148.42L150.624 45.4136H157.723V45.3524Z" fill="#0D0F0F"/>
<path d="M163.599 55.6347C162.803 51.5952 161.885 50.8607 159.927 50.6771L158.886 55.6347H157.417L159.621 45.4136H161.09L160.049 50.3711C161.151 49.6367 163.354 47.6781 165.558 45.4136H167.455C164.823 48.0453 162.987 49.5754 162.314 50.0039C163.538 50.3711 164.456 50.9219 165.496 55.6347H163.599Z" fill="#0D0F0F"/>
<path d="M173.208 45.1076C174.126 45.1076 175.289 45.2912 176.023 45.4748L175.35 46.8213C174.799 46.5764 173.82 46.4541 173.086 46.4541C170.699 46.4541 169.719 46.9437 168.985 50.3711C168.25 53.7986 169.046 54.4106 171.433 54.4106C172.168 54.4106 173.208 54.2882 173.82 54.0434L173.881 55.3899C173.024 55.6347 171.862 55.7571 170.943 55.7571C167.7 55.7571 166.476 54.533 167.332 50.3099C168.25 46.2092 169.964 45.1076 173.208 45.1076Z" fill="#0D0F0F"/>
<path d="M181.96 52.7581H177.186C176.635 53.7373 176.146 54.6554 175.656 55.6347H174.126C175.901 52.3909 178.043 48.6574 180.063 45.4136H182.511C182.878 48.7798 183.49 52.8805 184.102 55.6347H182.45C182.327 54.7778 182.144 53.7985 181.96 52.7581ZM180.797 46.6376C179.818 48.229 178.839 49.8815 177.921 51.534H181.777C181.532 49.9427 181.348 48.229 181.165 46.6376H180.797Z" fill="#0D0F0F"/>
<path d="M186.918 55.6347H185.449L187.652 45.4136H189.121L188.264 49.5143H193.161L194.017 45.4136H195.486L193.283 55.6347H191.814L192.855 50.8607H187.958L186.918 55.6347Z" fill="#0D0F0F"/>
<path d="M204.606 54.2882H206.442L205.402 57.838H204.116L204.606 55.5735H196.343L195.854 57.838H194.568L194.997 54.2882H196.527C198.057 51.7788 199.159 48.841 200.077 45.3524H206.503L204.606 54.2882ZM204.789 46.6376H201.24C200.505 49.2082 199.587 51.9012 198.241 54.2882H203.137L204.789 46.6376Z" fill="#0D0F0F"/>
<path d="M207.605 55.6347L209.808 45.4136H214.766C216.969 45.4136 217.336 46.9437 216.908 48.841C216.541 50.4935 215.439 52.0848 213.419 52.0848H209.931L209.196 55.6347H207.605ZM213.297 50.7383C214.337 50.7383 214.949 50.0039 215.194 48.7798C215.5 47.3721 215.133 46.6376 214.215 46.6376H210.971L210.114 50.7383H213.297Z" fill="#0D0F0F"/>
<path d="M229.883 52.7581C229.455 54.7166 228.353 55.6347 226.701 55.6347H221.376L223.579 45.4136H228.781C230.801 45.4136 231.046 46.454 230.74 47.8617C230.495 49.147 230.006 50.0651 228.169 50.1875C230.067 50.2487 230.25 51.2892 229.883 52.7581ZM226.762 54.3494C227.68 54.3494 228.108 53.6761 228.353 52.6357C228.598 51.534 228.353 50.7995 227.435 50.7995H223.885L223.151 54.3494H226.762ZM224.13 49.5754H227.619C228.475 49.5754 228.843 48.9022 229.087 48.1065C229.271 47.1885 229.149 46.6376 228.292 46.6376H224.803L224.13 49.5754Z" fill="#0D0F0F"/>
<path d="M241.022 45.3524L240.716 46.6376H234.963L234.351 49.5754H238.391L238.146 50.8607H234.106L233.372 54.3494H239.125L238.88 55.6347H231.658L233.861 45.4136H241.022V45.3524Z" fill="#0D0F0F"/>
<path d="M242.185 55.6347H240.716L242.92 45.4136H244.389L243.532 49.5143H248.428L249.285 45.4136H250.754L248.55 55.6347H247.082L248.122 50.8607H243.226L242.185 55.6347Z" fill="#0D0F0F"/>
<path d="M259.628 55.6347H258.159L259.873 47.5557C257.792 50.2487 255.528 53.0641 253.386 55.6347H251.427L253.63 45.4136H255.099L253.324 53.8597C255.711 51.0443 257.976 48.229 260.118 45.4136H261.954L259.628 55.6347Z" fill="#0D0F0F"/>
<path d="M268.809 52.7581H264.035C263.484 53.7373 262.995 54.6554 262.505 55.6347H260.975C262.75 52.3909 264.892 48.6574 266.912 45.4136H269.36C269.727 48.7798 270.339 52.8805 270.951 55.6347H269.299C269.176 54.7778 268.993 53.7985 268.809 52.7581ZM267.646 46.6376C266.667 48.229 265.688 49.8815 264.77 51.534H268.625C268.381 49.9427 268.197 48.229 268.013 46.6376H267.646Z" fill="#0D0F0F"/>
<path d="M282.825 45.3524H284.845L282.641 55.5735H281.172L282.947 47.2497C281.356 49.6367 279.642 52.2684 278.235 54.5942H277.072C276.643 52.2684 276.093 49.5755 275.542 47.2497L273.767 55.5735H272.298L274.501 45.3524H276.643C277.255 47.6169 277.806 50.1263 278.235 52.4521C279.581 50.1263 281.234 47.6169 282.825 45.3524Z" fill="#0D0F0F"/>
<path d="M293.658 55.6347H292.189L293.903 47.5557C291.822 50.2487 289.557 53.0641 287.415 55.6347H285.396L287.599 45.4136H289.068L287.293 53.8597C289.68 51.0443 291.944 48.229 294.087 45.4136H295.923L293.658 55.6347Z" fill="#0D0F0F"/>
<path d="M297.942 55.6347H296.473L298.677 45.4136H300.146L299.289 49.5143H304.185L305.042 45.4136H306.511L304.308 55.6347H302.839L303.879 50.8607H298.983L297.942 55.6347Z" fill="#0D0F0F"/>
<path d="M317.16 50.4323C316.242 54.6554 314.467 55.8183 311.285 55.8183C308.041 55.8183 306.756 54.6554 307.674 50.4323C308.531 46.2704 310.305 45.1076 313.549 45.1076C316.732 45.1076 318.078 46.2704 317.16 50.4323ZM315.569 50.4323C316.303 47.0049 315.691 46.3928 313.243 46.3928C310.795 46.3928 309.999 46.9437 309.265 50.4323C308.531 53.7374 309.143 54.4718 311.53 54.4718C313.978 54.4718 314.896 53.7986 315.569 50.4323Z" fill="#0D0F0F"/>
<path d="M326.831 52.7581C326.402 54.7166 325.301 55.6347 323.648 55.6347H318.323L320.527 45.4136H325.729C327.749 45.4136 327.994 46.454 327.687 47.8617C327.443 49.147 326.953 50.0651 325.117 50.1875C327.014 50.2487 327.137 51.2892 326.831 52.7581ZM323.709 54.3494C324.627 54.3494 325.056 53.6761 325.301 52.6357C325.545 51.534 325.301 50.7995 324.382 50.7995H320.833L320.098 54.3494H323.709ZM321.077 49.5754H324.566C325.423 49.5754 325.79 48.9022 326.035 48.1065C326.219 47.1885 326.096 46.6376 325.239 46.6376H321.751L321.077 49.5754Z" fill="#0D0F0F"/>
<path d="M336.868 55.6347H335.399L337.113 47.5557C335.032 50.2487 332.767 53.0641 330.625 55.6347H328.667L330.87 45.4136H332.339L330.564 53.8597C332.951 51.0443 335.216 48.229 337.358 45.4136H339.194L336.868 55.6347Z" fill="#0D0F0F"/>
<path d="M346.845 45.3524H348.313L346.11 55.5735H344.641L345.376 52.146C344.886 52.4521 343.846 52.6969 342.744 52.6969C340.479 52.6969 339.133 52.146 339.745 49.147L340.541 45.3524H342.009L341.214 49.0246C340.785 50.9219 341.459 51.2892 343.172 51.2892C344.458 51.2892 345.559 50.9219 345.682 50.3099L346.845 45.3524Z" fill="#0D0F0F"/>
<path d="M130.243 70.2625C129.937 71.5478 129.202 72.1598 128.101 72.1598H124.551L126.02 65.305H129.508C130.855 65.305 130.977 65.9782 130.793 66.9575C130.61 67.8143 130.304 68.4264 129.08 68.4876C130.365 68.5488 130.426 69.2832 130.243 70.2625ZM128.162 71.303C128.774 71.303 129.08 70.8745 129.202 70.1401C129.386 69.4056 129.202 68.916 128.59 68.916H126.203L125.714 71.303H128.162ZM126.387 68.1204H128.713C129.263 68.1204 129.569 67.6919 129.692 67.1411C129.814 66.529 129.692 66.1618 129.141 66.1618H126.815L126.387 68.1204Z" fill="#164381"/>
<path d="M131.406 72.1598L132.874 65.305H136.179C137.648 65.305 137.893 66.3454 137.587 67.5695C137.342 68.6712 136.608 69.7117 135.261 69.7117H132.936L132.446 72.0986H131.406V72.1598ZM135.2 68.916C135.873 68.916 136.302 68.4264 136.485 67.5695C136.669 66.6515 136.485 66.1618 135.812 66.1618H133.67L133.119 68.916H135.2Z" fill="#164381"/>
<path d="M142.178 70.2625H138.995C138.628 70.9357 138.322 71.5478 137.955 72.1598H136.914C138.077 70.0177 139.546 67.5083 140.892 65.305H142.484C142.728 67.5695 143.157 70.2625 143.524 72.1598H142.422C142.422 71.5478 142.3 70.9357 142.178 70.2625ZM141.382 66.1618C140.709 67.2023 140.097 68.304 139.485 69.4056H142.055C141.872 68.304 141.749 67.2023 141.688 66.1618H141.382Z" fill="#164381"/>
<path d="M149.277 65.305H150.256L148.788 72.1598H147.808L148.298 69.8953C147.992 70.0789 147.257 70.2625 146.523 70.2625C144.993 70.2625 144.136 69.8953 144.503 67.9367L145.054 65.3662H146.033L145.544 67.8143C145.299 69.0996 145.727 69.3444 146.829 69.3444C147.686 69.3444 148.42 69.0996 148.482 68.6712L149.277 65.305Z" fill="#164381"/>
<path d="M157.723 70.2625H154.541C154.174 70.9357 153.868 71.5478 153.5 72.1598H152.46C153.623 70.0177 155.092 67.5083 156.438 65.305H158.029C158.274 67.5695 158.703 70.2625 159.07 72.1598H157.968C157.907 71.5478 157.785 70.9357 157.723 70.2625ZM156.928 66.1618C156.255 67.2023 155.642 68.304 155.03 69.4056H157.601C157.417 68.304 157.295 67.2023 157.234 66.1618H156.928Z" fill="#164381"/>
<path d="M161.028 72.1598H160.049L161.518 65.305H162.497L161.885 68.0591H165.129L165.741 65.305H166.72L165.251 72.1598H164.272L164.945 68.9772H161.702L161.028 72.1598Z" fill="#164381"/>
<path d="M172.78 71.2418H174.004L173.269 73.6287H172.412L172.718 72.0986H167.21L166.904 73.6287H166.047L166.353 71.2418H167.394C168.434 69.5893 169.169 67.6307 169.781 65.305H174.065L172.78 71.2418ZM172.902 66.1618H170.515C170.025 67.8755 169.413 69.6505 168.556 71.2418H171.8L172.902 66.1618Z" fill="#164381"/>
<path d="M174.799 72.1598L176.268 65.305H179.573C181.042 65.305 181.287 66.3454 180.981 67.5695C180.736 68.6712 180.002 69.7117 178.655 69.7117H176.329L175.84 72.0986H174.799V72.1598ZM178.594 68.916C179.267 68.916 179.696 68.4264 179.879 67.5695C180.063 66.6515 179.879 66.1618 179.206 66.1618H177.064L176.513 68.916H178.594Z" fill="#164381"/>
<path d="M187.958 68.6712C187.346 71.4866 186.183 72.2822 184.041 72.2822C181.899 72.2822 181.042 71.4866 181.654 68.6712C182.266 65.917 183.429 65.1214 185.571 65.1214C187.713 65.1214 188.57 65.917 187.958 68.6712ZM186.918 68.6712C187.407 66.4066 186.979 65.9782 185.388 65.9782C183.796 65.9782 183.184 66.3454 182.695 68.6712C182.205 70.8746 182.633 71.3642 184.225 71.3642C185.877 71.3642 186.428 70.9358 186.918 68.6712Z" fill="#164381"/>
<path d="M191.753 66.1618C191.263 67.9979 190.284 70.2625 189.244 72.1598H188.203C189.305 70.1401 190.406 67.8143 191.019 65.305H195.425L193.956 72.1598H192.977L194.262 66.1618H191.753Z" fill="#164381"/>
<path d="M202.525 68.6712C201.913 71.4866 200.75 72.2822 198.608 72.2822C196.466 72.2822 195.609 71.4866 196.221 68.6712C196.833 65.917 197.996 65.1214 200.138 65.1214C202.219 65.1214 203.137 65.917 202.525 68.6712ZM201.423 68.6712C201.913 66.4066 201.484 65.9782 199.893 65.9782C198.302 65.9782 197.69 66.3454 197.2 68.6712C196.71 70.8746 197.139 71.3642 198.73 71.3642C200.383 71.3642 200.995 70.9358 201.423 68.6712Z" fill="#164381"/>
<path d="M203.259 72.1598L204.728 65.305H209.135L208.951 66.1618H205.524L204.239 72.1598H203.259Z" fill="#164381"/>
<path d="M208.584 68.9772H210.787L210.604 69.8341H208.401L208.584 68.9772Z" fill="#164381"/>
<path d="M215.684 65.1214C216.296 65.1214 217.092 65.2438 217.581 65.3662L217.153 66.2842C216.786 66.1618 216.112 66.0394 215.623 66.0394C214.031 66.0394 213.358 66.3454 212.868 68.6712C212.379 70.9358 212.868 71.3642 214.521 71.3642C215.011 71.3642 215.684 71.303 216.112 71.1194L216.173 72.0374C215.623 72.221 214.827 72.2822 214.215 72.2822C212.073 72.2822 211.216 71.4254 211.828 68.6712C212.379 65.8558 213.542 65.1214 215.684 65.1214Z" fill="#164381"/>
<path d="M223.518 65.305L223.334 66.1618H219.54L219.111 68.1204H221.804L221.621 68.9772H218.928L218.438 71.303H222.233L222.049 72.1598H217.214L218.683 65.305H223.518Z" fill="#164381"/>
<path d="M227.435 72.1598C226.884 69.4669 226.272 68.9772 224.987 68.8548L224.314 72.1598H223.334L224.803 65.305H225.783L225.048 68.61C225.783 68.1203 227.251 66.8351 228.72 65.305H229.944C228.169 67.0799 226.945 68.1204 226.517 68.3652C227.313 68.61 227.986 68.9772 228.598 72.0986H227.435V72.1598Z" fill="#164381"/>
<path d="M233.8 65.1214C234.412 65.1214 235.208 65.2438 235.698 65.3662L235.269 66.2842C234.902 66.1618 234.229 66.0394 233.739 66.0394C232.148 66.0394 231.475 66.3454 230.985 68.6712C230.495 70.9358 230.985 71.3642 232.637 71.3642C233.127 71.3642 233.8 71.303 234.229 71.1194L234.29 72.0374C233.739 72.221 232.943 72.2822 232.331 72.2822C230.189 72.2822 229.332 71.4254 229.944 68.6712C230.495 65.8558 231.658 65.1214 233.8 65.1214Z" fill="#164381"/>
<path d="M242.124 68.6712C241.512 71.4866 240.349 72.2822 238.207 72.2822C236.065 72.2822 235.208 71.4866 235.82 68.6712C236.432 65.917 237.595 65.1214 239.737 65.1214C241.818 65.1214 242.675 65.917 242.124 68.6712ZM241.022 68.6712C241.512 66.4066 241.083 65.9782 239.492 65.9782C237.901 65.9782 237.289 66.3454 236.799 68.6712C236.31 70.8746 236.738 71.3642 238.329 71.3642C239.982 71.3642 240.533 70.9358 241.022 68.6712Z" fill="#164381"/>
<path d="M245.857 66.1618C245.368 67.9979 244.389 70.2625 243.348 72.1598H242.308C243.409 70.1401 244.511 67.8143 245.123 65.305H249.53L248.061 72.1598H247.082L248.367 66.1618H245.857Z" fill="#164381"/>
<path d="M256.629 68.6712C256.017 71.4866 254.855 72.2822 252.712 72.2822C250.57 72.2822 249.713 71.4866 250.325 68.6712C250.937 65.917 252.1 65.1214 254.242 65.1214C256.385 65.1214 257.241 65.917 256.629 68.6712ZM255.589 68.6712C256.079 66.4066 255.65 65.9782 254.059 65.9782C252.468 65.9782 251.855 66.3454 251.366 68.6712C250.876 70.8746 251.305 71.3642 252.896 71.3642C254.487 71.3642 255.099 70.9358 255.589 68.6712Z" fill="#164381"/>
<path d="M257.425 72.1598L258.894 65.305H263.301L263.117 66.1618H259.69L258.404 72.1598H257.425Z" fill="#164381"/>
</svg>
