<?xml version="1.0" encoding="utf-8"?>
<!-- Generator: Adobe Illustrator 19.2.0, SVG Export Plug-In . SVG Version: 6.00 Build 0)  -->
<svg version="1.1" id="Слой_1" xmlns="http://www.w3.org/2000/svg" xmlns:xlink="http://www.w3.org/1999/xlink" x="0px" y="0px"
	 width="18px" height="14.1px" viewBox="0 0 18 14.1" style="enable-background:new 0 0 18 14.1;" xml:space="preserve">
<style type="text/css">
	.st0{fill:#FFFFFF;}
</style>
<path class="st0" d="M17.4,0H0.6C0.3,0,0,0.3,0,0.6v12.8c0,0.4,0.3,0.6,0.6,0.6h16.7c0.4,0,0.6-0.3,0.6-0.6V0.6
	C18,0.3,17.7,0,17.4,0z M16.6,2.2v10.4H1.4V2.2L0.9,1.8l0.8-1l0.9,0.7h12.9l0.9-0.7l0.8,1L16.6,2.2z M15.5,1.4L9,6.4l-6.5-5L1.7,0.8
	l-0.8,1l0.6,0.4l6.9,5.3C8.5,7.7,8.7,7.8,9,7.8c0.2,0,0.5-0.1,0.7-0.2l6.9-5.3l0.6-0.4l-0.8-1L15.5,1.4z"/>
</svg>
