<svg width="77" height="89" viewBox="0 0 77 89" fill="none" xmlns="http://www.w3.org/2000/svg">
<path d="M38.3543 68.7461C34.2568 62.1247 30.5061 56.4095 27.1112 50.49C22.838 43.0394 18.5163 35.5586 16.3834 27.131C13.0566 13.9884 23.4614 0.441944 37.1023 0.013357C49.6743 -0.38145 59.4453 8.01135 60.9707 20.5C61.5977 25.6341 59.5915 30.1923 57.6676 34.6882C52.7473 46.1873 46.0635 56.7072 39.2141 67.1226C39.0193 67.4181 38.8789 67.7496 38.3543 68.7461ZM50.162 22.8076C50.2423 16.277 44.991 10.907 38.4318 10.812C32.1197 10.7206 26.5787 16.1107 26.5185 22.3996C26.4541 29.1657 31.6473 34.5774 38.2756 34.6513C44.7313 34.7236 50.0813 29.3927 50.162 22.8076Z" fill="#00B2FF"/>
<path d="M13.7539 63.7324C15.8984 63.7324 17.7215 63.7324 19.7763 63.7324C19.7763 67.8394 19.9294 71.8592 19.7219 75.8601C19.5852 78.4917 20.3632 79.3737 23.0841 79.3299C32.4824 79.1774 41.8849 79.2724 51.2859 79.2734C52.3283 79.2734 53.3713 79.2734 54.7093 79.2734C54.7769 80.7598 54.8344 82.0197 54.9041 83.5567C38.9513 83.5567 23.2082 83.5567 7.17944 83.5567C9.37252 76.9426 11.5381 70.4135 13.7539 63.7324Z" fill="#164381"/>
<path d="M23.3518 75.8734C23.3518 71.7459 23.3518 67.8332 23.3518 63.6761C25.698 63.6761 27.9011 63.4945 30.0482 63.7611C30.9703 63.8756 32.0011 64.7581 32.5955 65.5736C34.4914 68.1752 36.2062 70.9088 38.3191 74.0852C40.3412 71.1041 42.1943 68.5985 43.7883 65.9373C44.7643 64.3084 45.8959 63.5473 47.8166 63.6624C50.0709 63.7975 52.3395 63.6941 54.7416 63.6941C54.7416 67.8997 54.7416 71.8045 54.7416 75.8734C44.2744 75.8734 33.9493 75.8734 23.3518 75.8734Z" fill="#164381"/>
<path d="M0 88.7068C2.80534 80.2438 5.50724 72.0891 8.2123 63.9359C9.45636 60.1863 10.788 56.4631 11.9139 52.6781C12.3272 51.2884 12.8323 50.6138 14.3856 50.6877C16.9302 50.8086 19.487 50.6555 22.0326 50.7632C22.7943 50.7954 23.5353 51.3132 24.2859 51.6082C24.2188 51.9138 24.1523 52.2194 24.0853 52.525C21.4183 52.525 18.7443 52.4152 16.0889 52.5878C15.2264 52.6438 13.8821 53.2587 13.6557 53.9237C10.0607 64.4663 6.61037 75.058 3.13945 85.6429C3.03811 85.9522 3.07875 86.3079 3.03389 86.8991C26.5814 86.8991 49.9895 86.8991 73.9629 86.8991C72.6808 82.8792 71.5223 79.1592 70.3078 75.4576C68.1474 68.872 65.8614 62.326 63.822 55.7041C63.0857 53.3131 61.9852 52.1925 59.3709 52.4617C57.1213 52.6929 54.829 52.5097 52.2902 51.8811C52.9996 51.4826 53.6979 50.7679 54.421 50.7415C57.4053 50.6318 60.9707 49.7466 63.2123 51.0524C65.1494 52.1804 65.759 55.8271 66.6526 58.4635C70.0291 68.4239 73.282 78.4266 76.678 88.7074C51.0562 88.7068 25.7258 88.7068 0 88.7068Z" fill="#164381"/>
<path d="M47.8528 60.3409C48.92 56.7011 50.7943 55.6718 54.3059 55.5626C58.7253 55.4253 61.1084 56.4984 62.2015 60.9795C63.3986 65.8851 65.2433 70.6322 66.9054 75.7573C64.0383 75.7573 61.3876 75.7573 58.2112 75.7573C58.2112 72.5224 58.2318 69.1417 58.207 65.761C58.16 59.4425 58.9744 60.457 52.7457 60.3446C51.187 60.3171 49.6273 60.3409 47.8528 60.3409Z" fill="#164381"/>
<path d="M70.0172 83.6407C65.6178 83.6407 62.0519 83.6407 58.3408 83.6407C58.3408 82.3053 58.3408 81.0259 58.3408 79.3601C61.3341 79.3601 64.3384 79.0302 67.1944 79.5359C68.2205 79.7174 68.8897 81.9121 70.0172 83.6407Z" fill="#164381"/>
<path d="M28.7928 60.2441C26.9021 60.2441 25.2527 60.2441 23.3979 60.2441C23.3979 58.8068 23.3979 57.3833 23.3979 55.9756C26.635 55.5148 27.0399 55.8268 28.7928 60.2441Z" fill="#164381"/>
<path d="M19.64 55.9354C19.64 57.4133 19.64 58.7598 19.64 60.2308C18.1257 60.2308 16.6146 60.2308 15.0781 60.2308C16.185 55.6525 16.185 55.6525 19.64 55.9354Z" fill="#164381"/>
</svg>
