<svg width="42" height="42" viewBox="0 0 42 42" fill="none" xmlns="http://www.w3.org/2000/svg">
<path d="M41.4164 34.9245L35.4949 40.7985C34.6208 41.6949 33.4622 41.9986 32.3338 42C27.3438 41.8505 22.6272 39.3994 18.7545 36.8825C12.3977 32.2579 6.5651 26.5237 2.90445 19.5941C1.50046 16.6883 -0.146924 12.9807 0.0104713 9.73731C0.0245063 8.51721 0.353296 7.31976 1.21258 6.53331L7.13409 0.61477C8.36371 -0.431135 9.55284 -0.069515 10.3397 1.14877L15.1036 10.1823C15.605 11.2525 15.3174 12.3992 14.5693 13.1639L12.3877 15.3444C12.253 15.5289 12.1672 15.7389 12.1651 15.9675C13.0016 19.2057 15.536 22.1904 17.7749 24.2445C20.0137 26.2985 22.4203 29.0814 25.5441 29.7402C25.9302 29.8479 26.4032 29.8857 26.6794 29.6289L29.2173 27.0479C30.0921 26.3849 31.3553 26.0608 32.2893 26.6029H32.3338L40.9266 31.6759C42.1881 32.4667 42.3196 33.9948 41.4164 34.9245Z" fill="#164381"/>
</svg>
