<svg width="18" height="17" viewBox="0 0 18 17" fill="none" xmlns="http://www.w3.org/2000/svg">
<path d="M4.524 16.852C3.732 16.852 3.012 16.576 2.364 16.024C1.74 15.448 1.248 14.704 0.888 13.792C0.528 12.88 0.348 11.908 0.348 10.876C0.348 9.196 0.648 7.624 1.248 6.16C1.848 4.672 2.592 3.412 3.48 2.38C4.368 1.324 5.22 0.567998 6.036 0.111999H6.072L7.476 1.372V1.948C6.876 2.5 6.312 3.292 5.784 4.324C5.28 5.356 5.028 6.628 5.028 8.14C5.028 8.884 5.136 9.496 5.352 9.976C5.568 10.456 5.88 10.96 6.288 11.488C6.648 11.968 6.912 12.4 7.08 12.784C7.248 13.144 7.332 13.6 7.332 14.152C7.332 14.92 7.056 15.568 6.504 16.096C5.976 16.6 5.316 16.852 4.524 16.852ZM14.892 16.852C14.1 16.852 13.38 16.576 12.732 16.024C12.108 15.448 11.616 14.704 11.256 13.792C10.896 12.88 10.716 11.908 10.716 10.876C10.716 9.196 11.016 7.624 11.616 6.16C12.216 4.672 12.96 3.412 13.848 2.38C14.736 1.324 15.588 0.567998 16.404 0.111999H16.44L17.844 1.372V1.948C17.244 2.5 16.68 3.304 16.152 4.36C15.624 5.392 15.36 6.652 15.36 8.14C15.36 8.884 15.468 9.496 15.684 9.976C15.9 10.456 16.212 10.96 16.62 11.488C16.98 11.968 17.244 12.4 17.412 12.784C17.58 13.144 17.664 13.6 17.664 14.152C17.664 14.92 17.4 15.568 16.872 16.096C16.344 16.6 15.684 16.852 14.892 16.852Z" fill="white"/>
</svg>
