<svg width="18" height="18" viewBox="0 0 18 18" fill="none" xmlns="http://www.w3.org/2000/svg">
<path d="M0.528 15.872V15.296C1.104 14.744 1.656 13.916 2.184 12.812C2.712 11.708 2.976 10.412 2.976 8.924C2.976 8.204 2.868 7.628 2.652 7.196C2.46 6.74 2.16 6.26 1.752 5.756C1.392 5.276 1.116 4.856 0.924 4.496C0.756 4.112 0.672 3.644 0.672 3.092C0.672 2.324 0.936 1.688 1.464 1.184C2.016 0.655999 2.688 0.391999 3.48 0.391999C4.272 0.391999 4.98 0.667999 5.604 1.22C6.252 1.772 6.756 2.504 7.116 3.416C7.476 4.328 7.656 5.3 7.656 6.332C7.656 8.012 7.356 9.596 6.756 11.084C6.156 12.572 5.412 13.844 4.524 14.9C3.636 15.932 2.784 16.664 1.968 17.096H1.932L0.528 15.872ZM10.86 15.872V15.296C11.436 14.744 11.988 13.916 12.516 12.812C13.044 11.708 13.308 10.412 13.308 8.924C13.308 8.204 13.2 7.628 12.984 7.196C12.792 6.74 12.492 6.26 12.084 5.756C11.724 5.276 11.448 4.856 11.256 4.496C11.088 4.112 11.004 3.644 11.004 3.092C11.004 2.324 11.268 1.688 11.796 1.184C12.348 0.655999 13.008 0.391999 13.776 0.391999C14.568 0.391999 15.288 0.667999 15.936 1.22C16.584 1.772 17.088 2.504 17.448 3.416C17.808 4.328 17.988 5.3 17.988 6.332C17.988 8.012 17.688 9.596 17.088 11.084C16.488 12.572 15.744 13.844 14.856 14.9C13.968 15.932 13.116 16.664 12.3 17.096H12.264L10.86 15.872Z" fill="white"/>
</svg>
