<?xml version="1.0" encoding="utf-8"?>
<!-- Generator: Adobe Illustrator 19.2.0, SVG Export Plug-In . SVG Version: 6.00 Build 0)  -->
<svg version="1.1" id="Слой_1" xmlns="http://www.w3.org/2000/svg" xmlns:xlink="http://www.w3.org/1999/xlink" x="0px" y="0px"
	 width="18px" height="18px" viewBox="0 0 18 18" style="enable-background:new 0 0 18 18;" xml:space="preserve">
<style type="text/css">
	.st0{fill:#FFFFFF;}
</style>
<path class="st0" d="M12.9,10.6c-0.2-0.1-1.3-0.6-1.5-0.7C11.1,9.8,11,9.7,10.8,10c-0.1,0.2-0.6,0.7-0.7,0.9C10,11,9.9,11,9.7,10.9
	c-1.3-0.7-2.2-1.2-3-2.6C6.4,7.9,6.9,7.9,7.3,7.1c0.1-0.1,0-0.3,0-0.4C7.2,6.6,6.8,5.5,6.6,5C6.4,4.6,6.2,4.7,6.1,4.6
	c-0.1,0-0.3,0-0.4,0c-0.1,0-0.4,0.1-0.6,0.3C4.9,5.1,4.3,5.7,4.3,6.8S5.1,8.9,5.2,9c0.1,0.1,1.6,2.4,3.8,3.3c1.4,0.6,2,0.7,2.7,0.6
	c0.4-0.1,1.3-0.5,1.5-1.1c0.2-0.5,0.2-1,0.1-1.1C13.2,10.7,13.1,10.7,12.9,10.6z"/>
<path class="st0" d="M17.3,5.5c-0.5-1.1-1.1-2-1.9-2.9c-0.8-0.8-1.8-1.5-2.9-1.9C11.4,0.2,10.2,0,9,0h0C7.7,0,6.6,0.2,5.5,0.7
	c-1.1,0.5-2,1.1-2.9,1.9C1.8,3.5,1.1,4.5,0.7,5.5C0.2,6.6,0,7.8,0,9c0,1.4,0.3,2.8,1,4v3.1C1,16.6,1.4,17,1.9,17h3.1
	c1.2,0.6,2.6,1,4,1h0c1.2,0,2.4-0.2,3.5-0.7c1.1-0.4,2-1.1,2.9-1.9c0.8-0.8,1.5-1.8,1.9-2.9C17.8,11.4,18,10.3,18,9
	C18,7.8,17.8,6.6,17.3,5.5z M14.3,14.3c-1.4,1.4-3.3,2.2-5.3,2.2h0c-1.2,0-2.4-0.3-3.5-0.9l-0.2-0.1H2.5v-2.8l-0.1-0.2
	C1.8,11.4,1.5,10.2,1.5,9c0-2,0.8-3.9,2.2-5.3C5.1,2.3,7,1.5,9,1.5h0c1,0,2,0.2,2.9,0.6c0.9,0.4,1.7,0.9,2.4,1.6
	c0.7,0.7,1.2,1.5,1.6,2.4C16.3,7,16.5,8,16.5,9C16.5,11,15.7,12.9,14.3,14.3z"/>
</svg>
